<svg xmlns="http://www.w3.org/2000/svg" width="127" height="44" viewBox="0 0 127 44" fill="none"><path d="M24.8 36.33C22.68 36.33 21.02 35.82 19.82 34.8C18.62 33.76 18.02 32.4 18.02 30.72C18.02 28.94 18.64 27.57 19.88 26.61C21.12 25.65 22.9 25.17 25.22 25.17H30.38V24.48C30.38 22.54 29.22 21.57 26.9 21.57C24.88 21.57 23.66 22.27 23.24 23.67H18.29C18.69 21.69 19.62 20.19 21.08 19.17C22.54 18.15 24.48 17.64 26.9 17.64C29.58 17.64 31.62 18.24 33.02 19.44C34.44 20.64 35.15 22.39 35.15 24.69V31.08H37.49V36H32.45V33.06H31.19C30.57 34.1 29.74 34.91 28.7 35.49C27.66 36.05 26.36 36.33 24.8 36.33ZM25.55 32.55C26.49 32.55 27.32 32.38 28.04 32.04C28.76 31.7 29.33 31.25 29.75 30.69C30.17 30.11 30.38 29.46 30.38 28.74V28.47H25.46C23.66 28.47 22.76 29.14 22.76 30.48C22.76 31.14 23.01 31.65 23.51 32.01C24.01 32.37 24.69 32.55 25.55 32.55ZM48.9247 43.56C46.2247 43.56 44.0247 43.01 42.3247 41.91C40.6447 40.83 39.6447 39.32 39.3247 37.38H44.6047C45.0847 38.86 46.4747 39.6 48.7747 39.6C50.3347 39.6 51.5247 39.24 52.3447 38.52C53.1847 37.82 53.6047 36.8 53.6047 35.46V33.06H53.4547C52.9147 34.02 52.1647 34.75 51.2047 35.25C50.2647 35.75 49.1347 36 47.8147 36C46.1147 36 44.6347 35.63 43.3747 34.89C42.1347 34.13 41.1647 33.06 40.4647 31.68C39.7847 30.3 39.4447 28.68 39.4447 26.82C39.4447 24.02 40.2147 21.79 41.7547 20.13C43.3147 18.47 45.4447 17.64 48.1447 17.64C49.6647 17.64 50.9547 17.93 52.0147 18.51C53.0947 19.09 53.9547 19.9 54.5947 20.94H55.8547V18H60.8947V22.92H58.4347V35.52C58.4347 38.08 57.6147 40.06 55.9747 41.46C54.3347 42.86 51.9847 43.56 48.9247 43.56ZM49.0447 31.68C50.4247 31.68 51.5047 31.3 52.2847 30.54C53.0647 29.78 53.4547 28.74 53.4547 27.42V26.16C53.4547 24.86 53.0547 23.84 52.2547 23.1C51.4747 22.34 50.4047 21.96 49.0447 21.96C47.5847 21.96 46.4447 22.39 45.6247 23.25C44.8247 24.11 44.4247 25.31 44.4247 26.85C44.4247 28.39 44.8247 29.58 45.6247 30.42C46.4447 31.26 47.5847 31.68 49.0447 31.68ZM72.2788 36.36C70.3388 36.36 68.6488 35.98 67.2088 35.22C65.7688 34.44 64.6588 33.35 63.8788 31.95C63.0988 30.53 62.7087 28.86 62.7087 26.94C62.7087 25.02 63.0888 23.37 63.8488 21.99C64.6088 20.59 65.6888 19.52 67.0888 18.78C68.5088 18.02 70.1788 17.64 72.0987 17.64C73.9788 17.64 75.5888 18 76.9288 18.72C78.2888 19.44 79.3288 20.47 80.0487 21.81C80.7688 23.15 81.1288 24.75 81.1288 26.61V28.29H67.4787C67.6788 29.63 68.1888 30.65 69.0088 31.35C69.8288 32.05 70.9088 32.4 72.2488 32.4C73.3088 32.4 74.1488 32.22 74.7688 31.86C75.3888 31.5 75.8288 30.95 76.0888 30.21H81.0688C80.6688 32.13 79.6988 33.64 78.1588 34.74C76.6188 35.82 74.6588 36.36 72.2788 36.36ZM67.5988 24.99H76.3587C76.1988 23.85 75.7588 23 75.0388 22.44C74.3188 21.86 73.3487 21.57 72.1287 21.57C70.9088 21.57 69.9088 21.86 69.1288 22.44C68.3688 23.02 67.8588 23.87 67.5988 24.99ZM85.3794 36V22.92H82.9194V18H87.9594V20.94H89.2194C89.9194 19.9 90.7994 19.1 91.8594 18.54C92.9194 17.96 94.2394 17.67 95.8194 17.67C98.3194 17.67 100.249 18.36 101.609 19.74C102.989 21.1 103.679 22.93 103.679 25.23V36H98.6994V26.16C98.6994 24.84 98.3394 23.84 97.6194 23.16C96.9194 22.46 95.8894 22.11 94.5294 22.11C93.1694 22.11 92.1294 22.46 91.4094 23.16C90.7094 23.84 90.3594 24.84 90.3594 26.16V36H85.3794ZM113.323 36.33C111.203 36.33 109.543 35.82 108.343 34.8C107.143 33.76 106.543 32.4 106.543 30.72C106.543 28.94 107.163 27.57 108.403 26.61C109.643 25.65 111.423 25.17 113.743 25.17H118.903V24.48C118.903 22.54 117.743 21.57 115.423 21.57C113.403 21.57 112.183 22.27 111.763 23.67H106.813C107.213 21.69 108.143 20.19 109.603 19.17C111.063 18.15 113.003 17.64 115.423 17.64C118.103 17.64 120.143 18.24 121.543 19.44C122.963 20.64 123.673 22.39 123.673 24.69V31.08H126.013V36H120.973V33.06H119.713C119.093 34.1 118.263 34.91 117.223 35.49C116.183 36.05 114.883 36.33 113.323 36.33ZM114.073 32.55C115.013 32.55 115.843 32.38 116.563 32.04C117.283 31.7 117.853 31.25 118.273 30.69C118.693 30.11 118.903 29.46 118.903 28.74V28.47H113.983C112.183 28.47 111.283 29.14 111.283 30.48C111.283 31.14 111.533 31.65 112.033 32.01C112.533 32.37 113.213 32.55 114.073 32.55Z" fill="white"></path><g clip-path="url(#clip0_155_53)"><path d="M15.4814 31.9999C-3.28535 21.3525 12.9406 16.3706 25.8221 14.3663L26.9684 8.96729C-4.27805 13.2193 -5.58983 25.5118 15.4814 31.9999Z" fill="url(#paint0_linear_155_53)"></path><path d="M0.366567 16.7531C0.366567 16.7531 2.02107 8.79363 32.9602 4.91238L34.0002 0C17.0061 2.27082 -2.95425 6.80087 0.366567 16.7531Z" fill="white"></path></g><defs><linearGradient id="paint0_linear_155_53" x1="1.31049" y1="20.4836" x2="26.9684" y2="20.4836" gradientUnits="userSpaceOnUse"><stop stop-color="#3B69FF"></stop><stop offset="1" stop-color="#00C9FF"></stop></linearGradient><clipPath id="clip0_155_53"><rect width="34" height="32" fill="white"></rect></clipPath></defs></svg>